<?xml version="1.0" encoding="UTF-8" standalone="no"?>
<svg
   width="1050mm"
   height="1000mm"
   viewBox="0 0 1050 1000"
   version="1.1"
   id="svg1"
   inkscape:version="1.3 (0e150ed6c4, 2023-07-21)"
   xml:space="preserve"
   sodipodi:docname="np.svg"
   xmlns:inkscape="http://www.inkscape.org/namespaces/inkscape"
   xmlns:sodipodi="http://sodipodi.sourceforge.net/DTD/sodipodi-0.dtd"
   xmlns="http://www.w3.org/2000/svg"
   xmlns:svg="http://www.w3.org/2000/svg"><sodipodi:namedview
     id="namedview1"
     pagecolor="#ffffff"
     bordercolor="#666666"
     borderopacity="1.0"
     inkscape:showpageshadow="2"
     inkscape:pageopacity="0.0"
     inkscape:pagecheckerboard="0"
     inkscape:deskcolor="#d1d1d1"
     inkscape:document-units="mm"
     showgrid="true"
     inkscape:zoom="0.040000002"
     inkscape:cx="-6512.4997"
     inkscape:cy="1287.4999"
     inkscape:window-width="1920"
     inkscape:window-height="1001"
     inkscape:window-x="-9"
     inkscape:window-y="-9"
     inkscape:window-maximized="1"
     inkscape:current-layer="svg1" /><defs
     id="defs1" /><path
     id="path1"
     style="fill:#747474;stroke-width:160;stroke-linecap:round;stroke-linejoin:round;paint-order:stroke markers fill"
     d="m 500,300 1,20 h 16 c 29,0 61,11 62,40 l 3,64 c 3,54 11,102 28,141 l -70,69 c -30,29 -59,46 -85,46 h -15 v 20 h 111 c 20,0 53,-11 83,-40 l 23,-23 c 47,46 118,71 221,71 h 13 c 57,0 104,-34 123,-74 26,-55 1,-108 -28,-125 -22,-13 -43,-14 -59,-2 -14,11 -19,33 1,43 36,19 68,54 49,78 -17,21 -48,34 -82,34 H 876 C 801,662 747,637 714,581 L 933,366 c 29,-29 63,-46 83,-46 h 14 V 300 H 922 c -20,0 -54,11 -83,40 L 682,494 c -4,-21 -7,-45 -8,-70 l -3,-64 c -1,-29 22,-40 42,-40 h 16 l -1,-20 z" /><path
     id="path3"
     style="fill:#747474;stroke-width:160;stroke-linecap:round;stroke-linejoin:round;paint-order:stroke markers fill"
     d="m 128.41955,266.98267 c -0.44678,-0.0488 -0.91955,-0.0449 -1.41955,0.0176 -1,0 -2.99976,0.99988 -3.99976,1.99988 l -115.0002115,52.99986 6.0001505,17.99994 22.99963,-8.00003 c 7.999992,-3 11.000362,-2e-5 11.000362,8.99997 V 640.00021 C 47.000172,669.00018 23.999736,679.99984 3.9997559,679.99984 H 0 v 20.00033 h 184.00014 v -20.00033 h -6.00015 c -19.99998,0 -42.00002,-10.99966 -42.00002,-39.99963 V 438.00014 c 9.99999,-65.99994 111.00032,-117.00033 165.00026,-70.00038 42.99996,36.99996 37.17801,131.64896 2.99982,230.00043 -26.31827,75.73368 -4.34766,101.99998 30.66738,101.99998 H 440.00002 V 679.99984 H 420.0002 c -37.40953,0 -41.3963,-30.43137 -23.00014,-86.99986 C 440.45701,459.36915 422.00011,346.99971 344.00019,308.99974 292.00024,282.99977 184.99992,282.00017 135.99997,354.0001 v -68.99993 c 0,-4.68749 -0.87876,-17.28508 -7.58042,-18.0175 z"
     sodipodi:nodetypes="scccccscsccccssccssccssccss" /></svg>
