<?xml version="1.0" encoding="UTF-8" standalone="no"?>
<svg
   width="570mm"
   height="1000mm"
   viewBox="0 0 570 1000"
   version="1.1"
   id="svg1"
   inkscape:version="1.3 (0e150ed6c4, 2023-07-21)"
   xml:space="preserve"
   sodipodi:docname="p.svg"
   xmlns:inkscape="http://www.inkscape.org/namespaces/inkscape"
   xmlns:sodipodi="http://sodipodi.sourceforge.net/DTD/sodipodi-0.dtd"
   xmlns="http://www.w3.org/2000/svg"
   xmlns:svg="http://www.w3.org/2000/svg"><sodipodi:namedview
     id="namedview1"
     pagecolor="#ffffff"
     bordercolor="#666666"
     borderopacity="1.0"
     inkscape:showpageshadow="2"
     inkscape:pageopacity="0.0"
     inkscape:pagecheckerboard="0"
     inkscape:deskcolor="#d1d1d1"
     inkscape:document-units="mm"
     showgrid="true"
     inkscape:zoom="0.080000004"
     inkscape:cx="143.74999"
     inkscape:cy="981.24996"
     inkscape:window-width="1920"
     inkscape:window-height="1001"
     inkscape:window-x="-9"
     inkscape:window-y="-9"
     inkscape:window-maximized="1"
     inkscape:current-layer="svg1" /><defs
     id="defs1" /><path
     id="path1"
     style="fill:#747474;stroke-width:160;stroke-linecap:round;stroke-linejoin:round;paint-order:stroke markers fill"
     d="m 20,300 1,20 h 16 c 29,0 61,11 62,40 l 3,64 c 3,54 11,102 28,141 l -70,69 c -30,29 -59,46 -85,46 h -15 v 20 H 71 c 20,0 53,-11 83,-40 l 23,-23 c 47,46 118,71 221,71 h 13 c 57,0 104,-34 123,-74 26,-55 1,-108 -28,-125 -22,-13 -43,-14 -59,-2 -14,11 -19,33 1,43 36,19 68,54 49,78 -17,21 -48,34 -82,34 H 396 C 321,662 267,637 234,581 L 453,366 c 29,-29 63,-46 83,-46 h 14 V 300 H 442 c -20,0 -54,11 -83,40 L 202,494 c -4,-21 -7,-45 -8,-70 l -3,-64 c -1,-29 22,-40 42,-40 h 16 l -1,-20 z"
     sodipodi:nodetypes="ccssssccccssssccc" /></svg>
