<?xml version="1.0" encoding="UTF-8" standalone="no"?>
<!-- Created with Inkscape (http://www.inkscape.org/) -->

<svg
   width="1000mm"
   height="1000mm"
   viewBox="0 0 1000 1000"
   version="1.1"
   id="svg1"
   inkscape:version="1.3 (0e150ed6c4, 2023-07-21)"
   sodipodi:docname="main.svg"
   xml:space="preserve"
   xmlns:inkscape="http://www.inkscape.org/namespaces/inkscape"
   xmlns:sodipodi="http://sodipodi.sourceforge.net/DTD/sodipodi-0.dtd"
   xmlns:xlink="http://www.w3.org/1999/xlink"
   xmlns="http://www.w3.org/2000/svg"
   xmlns:svg="http://www.w3.org/2000/svg"><sodipodi:namedview
     id="namedview1"
     pagecolor="#ffffff"
     bordercolor="#666666"
     borderopacity="1.0"
     inkscape:showpageshadow="2"
     inkscape:pageopacity="0.0"
     inkscape:pagecheckerboard="0"
     inkscape:deskcolor="#d1d1d1"
     inkscape:document-units="mm"
     showgrid="true"
     inkscape:zoom="0.32"
     inkscape:cx="18575"
     inkscape:cy="2010.9375"
     inkscape:window-width="1920"
     inkscape:window-height="1001"
     inkscape:window-x="-9"
     inkscape:window-y="-9"
     inkscape:window-maximized="1"
     inkscape:current-layer="layer1"><sodipodi:guide
       position="2155.66,699.90999"
       orientation="0,1"
       id="guide1"
       inkscape:locked="false"
       inkscape:label=""
       inkscape:color="rgb(192,28,40)" /><sodipodi:guide
       position="1000,300"
       orientation="0,1"
       id="guide3"
       inkscape:locked="false"
       inkscape:label=""
       inkscape:color="rgb(192,28,40)" /><inkscape:grid
       id="grid4"
       units="mm"
       originx="0"
       originy="0"
       spacingx="0.99999999"
       spacingy="0.99999999"
       empcolor="#0099e5"
       empopacity="0.30196078"
       color="#0099e5"
       opacity="0.14901961"
       empspacing="20"
       dotted="false"
       gridanglex="30"
       gridanglez="30"
       visible="true" /><sodipodi:guide
       position="0,999.99999"
       orientation="0,3779.5276"
       id="guide63"
       inkscape:locked="false" /><sodipodi:guide
       position="999.99999,999.99999"
       orientation="3779.5276,0"
       id="guide64"
       inkscape:locked="false" /><sodipodi:guide
       position="999.99999,0"
       orientation="0,-3779.5276"
       id="guide65"
       inkscape:locked="false" /><sodipodi:guide
       position="0,0"
       orientation="-3779.5276,0"
       id="guide66"
       inkscape:locked="false" /></sodipodi:namedview><defs
     id="defs1" /><g
     inkscape:label="Layer 1"
     inkscape:groupmode="layer"
     id="layer1"><path
       id="path137"
       style="fill:#747474;fill-opacity:1;stroke:none;stroke-width:160;stroke-linecap:round;stroke-linejoin:round;paint-order:stroke markers fill"
       d="m 7815.6614,-1970.0001 c -68.6318,-10e-5 -136.4012,19.4301 -167.7732,81.1361 -11.7423,23.0961 -16.5041,61.7242 -6.6492,85.9173 8.6423,21.2167 30.8788,35.4544 54.853,30.5614 26.0264,-5.3119 40.2266,-25.7384 35.8071,-49.4306 -4.6731,-25.0525 -29.713,-37.8097 -19.0102,-59.1256 13.1113,-26.1127 42.316,-53.3873 101.4708,-53.3873 66.5366,0 105.6404,74.3288 105.6404,174.3288 -0.4933,88.5728 -55.8156,163.7698 -127.4537,163.7698 -65.2175,-1.018 -80.2087,-45.7841 -81.4539,-105.7697 -0.2457,-11.8381 -79.416,28.6185 -77.9999,40.0001 8.1088,65.1732 66.3206,111.9999 161.1659,111.9999 124.7905,-10e-5 211.9998,-80.8041 211.9999,-210.0001 0,-151.0201 -71.3904,-210 -190.597,-210.0001 z"
       sodipodi:nodetypes="sssssssccsssss" /><path
       id="path30"
       style="fill:#747474;fill-opacity:1;stroke:none;stroke-width:160;stroke-linecap:round;stroke-linejoin:round;paint-order:stroke markers fill"
       d="M 2850.0001,289.9999 C 2734.0202,289.99996 2639.9999,384.02012 2640,500 c -1e-4,115.97988 94.0202,210.00016 210.0001,210.0001 115.9799,6e-5 210,-94.02022 210.0001,-210.0001 1e-4,-123.24848 -82.5981,-210.00017 -210.0001,-210.0001 z m 7.7125,46.22998 c 71.6382,-5e-5 129.7124,64.41963 129.7123,143.88527 -1e-4,79.46544 -58.0743,143.88481 -129.7123,143.88476 -71.6381,5e-5 -129.7122,-64.41932 -129.7124,-143.88476 -10e-5,-79.46564 58.0741,-143.88532 129.7124,-143.88527 z"
       sodipodi:nodetypes="ssssssssss" /><path
       id="rect4"
       style="fill:#747474;fill-opacity:1;stroke:none;stroke-width:160;stroke-linecap:round;stroke-linejoin:round;paint-order:stroke markers fill"
       d="m 191.61879,261.32231 c -1.52614,-0.0275 -3.13843,0.43776 -4.72477,1.23093 l -106.894252,53.44687 6.000152,17.99993 23.00015,-8.00003 c 7.84346,-2.72815 10.99984,-5e-5 10.99984,9.17567 v 304.82453 c -0.77878,28.69634 -23.99992,39.99968 -43.999898,39.99963 h -3.999756 v 20.00033 H 247.99985 v -20.00033 h -5.99963 c -19.99998,3e-5 -42.00002,-11.26595 -42.00002,-39.99963 v -324.0001 -36.67787 c 0,-13.40059 -3.80298,-17.91751 -8.38141,-17.99993 z"
       sodipodi:nodetypes="scccsscsccccsscss" /><path
       style="fill:#747474;fill-opacity:1;stroke:none;stroke-width:0.264583px;stroke-linecap:butt;stroke-linejoin:miter;stroke-opacity:1"
       d="m 200,356 v 84 C 210.00297,374.36745 323.38939,326.93638 369.99999,383.99999 464.15349,499.26861 389.77023,781.03838 159,841.00001 l -59,53 C 482.97792,882.63475 604.06993,413.81808 408.07664,312 357.02018,285.47628 248.70942,284.15133 200,356 Z"
       id="path5"
       sodipodi:nodetypes="ccsccsc" /><path
       id="path6"
       style="fill:#747474;stroke-width:160;stroke-linecap:round;stroke-linejoin:round;paint-order:stroke markers fill"
       d="M 130.88889,824.84493 C 125.4189,797.11793 104.04514,780.00006 74,780.00006 c -30.927946,0 -52,25.07205 -52,56 0,33.00469 26.045023,58 78,58 30.92795,0 59,-22.0721 59,-53.00005 -12.75283,2.29569 -25.51611,-3.00122 -28.11111,-16.15508 z"
       sodipodi:nodetypes="sssscs" /><path
       id="rect7"
       style="fill:#747474;stroke-width:160;stroke-linecap:round;stroke-linejoin:round;paint-order:stroke markers fill"
       d="M 560,700 640,600 V 316 h -80 z"
       sodipodi:nodetypes="ccccc" /><path
       id="path8"
       style="fill:#747474;stroke-width:160;stroke-linecap:round;stroke-linejoin:round;paint-order:stroke markers fill"
       d="m 1112,80 4,1e-5 c 20,5e-5 43.2212,-11.30364 44,-40.00001 h 80 c 0,28.73371 22,40.00004 42,40.00001 l 6,-1e-5 v 20 h -176 z"
       sodipodi:nodetypes="csccscccc" /><path
       style="fill:#747474;fill-opacity:1;stroke:none;stroke-width:0.264583px;stroke-linecap:butt;stroke-linejoin:miter;stroke-opacity:1"
       d="M 520,315.99999 526,334 l 23,-8 c 7.84348,-2.72817 11,0 11,9.17573 L 640,316 v -36.67796 c 0,-17.86747 -6.76078,-19.94165 -13.10617,-16.76896 z"
       id="path9"
       sodipodi:nodetypes="ccsccssc" /><path
       id="rect9"
       style="fill:#747474;stroke-width:160;stroke-linecap:round;stroke-linejoin:round;paint-order:stroke markers fill"
       d="m 910.00017,296.00002 -80.00028,65.99978 v 278.00041 c -0.77878,28.69634 -23.99992,39.99963 -43.9999,39.99963 h -3.99975 v 20.00033 h 175.99959 v -20.00033 h -5.99963 c -19.99998,0 -42.00003,-11.26595 -42.00003,-39.99963 z"
       sodipodi:nodetypes="cccsccccssc" /><path
       style="fill:#747474;fill-opacity:1;stroke:none;stroke-width:0.264583px;stroke-linecap:butt;stroke-linejoin:miter;stroke-opacity:1"
       d="M 560,693.64434 V 700 c 0,9.71509 34.215,9.02472 41,10e-6 L 807.00001,426 C 819.56083,409.29289 830,406.02942 830,419.17573 V 420 L 910,298 V 261.32204 C 910,243.45457 899.87722,240.83774 893.00001,250 Z"
       id="path11"
       sodipodi:nodetypes="cssssccssc" /><path
       style="fill:#747474;fill-opacity:1;stroke:none;stroke-width:0.264583px;stroke-linecap:butt;stroke-linejoin:miter;stroke-opacity:1"
       d="m 584.92499,-52.403974 v 32.000014 c 0,7.3352 8.7308,8.21019 13.15003,2.35566 l 234.00001,-310.00001 c 12.59293,-16.68294 22.99999,-19.97058 22.99999,-6.82427 v 0.82427 l 80,-116 v -36.67796 c 0,-17.86747 -8.85984,-22.45215 -13.10617,-16.76896 z"
       id="path12"
       sodipodi:nodetypes="cssssccssc" /><path
       id="path13"
       style="fill:#747474;fill-opacity:1;stroke:none;stroke-width:0.264583px;stroke-linecap:butt;stroke-linejoin:miter;stroke-opacity:1"
       d="m 592.00026,739.99993 v 31.99982 c 23.63425,30.68025 83.1149,60.00049 139.99972,60.00047 56.88482,2e-5 116.36598,-29.32022 140.00024,-60.00047 v -31.99982 c -25.26368,26.52394 -77.93477,44.00015 -140.00024,44.00015 -62.06547,0 -114.73605,-17.47621 -139.99972,-44.00015 z"
       sodipodi:nodetypes="ccsccsc" /><path
       id="rect14"
       style="fill:#747474;fill-opacity:1;stroke:none;stroke-width:160;stroke-linecap:round;stroke-linejoin:round;paint-order:stroke markers fill"
       d="m 1119.7147,261.32231 c -1.5261,-0.0275 -3.1384,0.43776 -4.7248,1.23093 l -106.8937,53.44687 6.0002,17.99993 22.9996,-8.00003 c 7.8435,-2.72822 11.0004,-5e-5 11.0004,9.17567 v 20.82424 284.00029 c -0.7787,28.69631 -24.0001,39.99968 -43.9999,39.99963 h -4.0003 v 20.00033 h 176.0001 v -20.00033 h -6.0002 c -19.9998,3e-5 -42,-11.26598 -42,-39.99963 v -324.0001 -36.67787 c 0,-13.40059 -3.803,-17.91751 -8.3814,-17.99993 z"
       sodipodi:nodetypes="scccssccsccccsscss" /><path
       style="fill:#747474;fill-opacity:1;stroke:none;stroke-width:0.264583px;stroke-linecap:butt;stroke-linejoin:miter;stroke-opacity:1"
       d="m 1128.0962,354 v 84 c 10.003,-65.63255 127.6546,-107.67181 171.8702,-56.42004 45.7212,52.99691 26.0705,118.38784 -2.4815,212.81042 -34.8949,115.39864 105.0046,164.56003 174.8029,37.63552 l -24.1267,-6.40609 c -38.7474,47.05989 -90.4721,32.4292 -61.4726,-40.665 50.1094,-126.30232 26.9126,-238.44587 -50.5969,-276.37354 C 1284.4121,283.29296 1176.8057,282.15133 1128.0962,354 Z"
       id="path15"
       sodipodi:nodetypes="ccssccssc" /><path
       id="path17"
       style="fill:#747474;stroke-width:160;stroke-linecap:round;stroke-linejoin:round;paint-order:stroke markers fill"
       d="M 2115.9998,315.99983 2036,341.9998 v 358.00037 h 127.9999 v -20.00033 h -5.9996 c -20,0 -42.0005,-11.26598 -42.0005,-39.99963 z"
       sodipodi:nodetypes="cccccssc" /><path
       id="path19"
       style="fill:#747474;stroke-width:160;stroke-linecap:round;stroke-linejoin:round;paint-order:stroke markers fill"
       d="m 2036,299.99978 v 60.00047 h 79.9998 c 0.7788,-28.69637 24.0004,-40.00024 44.0004,-40.00014 H 2164 v -20.00033 z" /><path
       id="path20"
       style="fill:#747474;stroke-width:160;stroke-linecap:round;stroke-linejoin:round;paint-order:stroke markers fill"
       d="m 1937.9998,300 h -172 v 20 h 38 c 21.8502,0 23.1384,8.5485 8,26 -63.6097,73.32883 -91.9998,225.82576 -16,310.00001 74.113,82.08457 197.3575,55.07088 264,-56.00001 v -60 c -60,89.53259 -144.6521,112.15699 -202,49.90112 C 1785.514,511.21187 1873.3534,340 1933.9998,312 c 6.9242,-3.19687 12.4389,-12 4,-12 z"
       sodipodi:nodetypes="sccsssccsss" /><use
       x="0"
       y="0"
       xlink:href="#path20"
       id="use20"
       transform="translate(-260)" /><path
       id="path21"
       style="fill:#747474;stroke-width:160;stroke-linecap:round;stroke-linejoin:round;paint-order:stroke markers fill"
       d="M 2579.9998,315.99983 2500,341.9998 v 538.00041 h 79.9998 z"
       sodipodi:nodetypes="ccccc" /><path
       id="path22"
       style="fill:#747474;stroke-width:160;stroke-linecap:round;stroke-linejoin:round;paint-order:stroke markers fill"
       d="m 2500,299.99978 v 60.00047 h 79.9998 c 0.7788,-28.69637 24.0004,-40.00024 44.0004,-40.00014 H 2628 v -20.00033 z" /><path
       id="path22-3"
       style="fill:#747474;stroke-width:160;stroke-linecap:round;stroke-linejoin:round;paint-order:stroke markers fill"
       d="m 6239.9997,300.03748 v 20.00033 h 3.9998 c 20,-10e-5 43.2216,11.3038 44.0004,40.00014 v 279.96224 c 0,28.73362 -22.0005,39.99963 -42.0005,39.99963 h -5.9997 v 20.00033 h 134 V 300.0375 Z"
       sodipodi:nodetypes="ccscssccccc" /><path
       id="path23"
       style="fill:#747474;stroke-width:160;stroke-linecap:round;stroke-linejoin:round;paint-order:stroke markers fill"
       d="m 2401.9998,300 h -172 v 20 h 38 c 21.8502,0 23.1384,8.5485 8,26 -63.6097,73.32883 -91.9998,225.82576 -16,310.00001 74.113,82.08457 197.3575,55.07088 264,-56.00001 v -60 c -60,89.53259 -144.6521,112.15699 -202,49.90112 C 2249.514,511.21187 2337.3534,340 2397.9998,312 c 6.9242,-3.19687 12.4389,-12 4,-12 z"
       sodipodi:nodetypes="sccsssccsss" /><path
       style="fill:#747474;fill-opacity:1;stroke:none;stroke-width:0.264583px;stroke-linecap:butt;stroke-linejoin:miter;stroke-opacity:1"
       d="m 2640,874.00001 -9.6712,-21.0822 -39.3288,17.0822 c -7.6169,3.30835 -11,0 -11,-9.1757 v -0.8243 l -80,20 v 40.6779 c 0,17.8675 6.7608,19.9417 13.1062,16.769 z"
       id="path9-6"
       sodipodi:nodetypes="ccssccssc" /><path
       id="path25"
       style="fill:#747474;stroke-width:160;stroke-linecap:round;stroke-linejoin:round;paint-order:stroke markers fill"
       d="m 3019.538,-653.90111 c -57.3479,-62.2558 -142,-39.6314 -202,49.9011 v -60 c 66.6425,-111.0708 189.887,-138.0845 264,-56 10.0091,11.08572 139.5786,183.51873 -61.538,356 h -95.8044 c 104.7364,-40 163.0372,-216.41282 95.3424,-289.9011 z"
       sodipodi:nodetypes="sccsccs" /><use
       x="0"
       y="0"
       xlink:href="#path25"
       id="use26"
       transform="rotate(180,2907.3362,-564.00001)" /><path
       id="path31"
       style="fill:#747474;fill-opacity:1;stroke:none;stroke-width:0.264583px;stroke-linecap:butt;stroke-linejoin:miter;stroke-opacity:1"
       d="M 3146,79.999768 3073.9989,217.70507 3097.8033,220 c 39.571,-55.16833 94.6318,-101.99997 180.5576,-101.99997 h 97.8405 c 16.3057,0 13.7561,4.79695 -9.3798,18.15445 C 3233.7065,213.00855 3095.9998,336.4693 3095.9998,500 l 82.1147,-19.9998 C 3181.2262,300 3352,197.99998 3488.3003,133.99979 3518,120.0542 3535.9158,98.443908 3535.6159,79.999768 Z"
       sodipodi:nodetypes="cccsssccscc" /><path
       id="path32"
       style="fill:#747474;fill-opacity:1;stroke:none;stroke-width:160;stroke-linecap:round;stroke-linejoin:round;paint-order:stroke markers fill"
       d="m 3305.9999,289.9999 c -115.9798,6e-5 -210.0001,94.02022 -210.0001,210.0001 0,115.97988 94.0203,210.00016 210.0001,210.0001 115.9799,6e-5 214.0002,-100.02022 214.0001,-216.0001 1e-4,-115.97988 -77.2528,-204.00017 -214.0001,-204.0001 z m 7.404,50.0001 c 74.7184,-5e-5 135.2895,62.68023 135.2894,140.0002 -10e-5,77.31979 -60.5712,139.99976 -135.2894,139.99971 -74.7181,5e-5 -135.2892,-62.67992 -135.2894,-139.99971 -1e-4,-77.31997 60.5711,-140.00025 135.2894,-140.0002 z"
       sodipodi:nodetypes="ssssssssss" /><path
       id="path33"
       style="fill:#747474;fill-opacity:1;stroke:none;stroke-width:160;stroke-linecap:round;stroke-linejoin:round;paint-order:stroke markers fill"
       d="M 3770.0001,289.9999 C 3654.0202,289.99996 3559.9999,384.02012 3560,500 c -1e-4,115.97988 94.0202,210.00016 210.0001,210.0001 115.9799,6e-5 210,-94.02022 210.0001,-210.0001 1e-4,-123.24848 -82.5981,-210.00017 -210.0001,-210.0001 z m 7.7125,46.22998 c 71.6382,-5e-5 129.7124,64.41963 129.7123,143.88527 -1e-4,79.46544 -58.0743,143.88481 -129.7123,143.88476 -71.6381,5e-5 -129.7122,-64.41932 -129.7124,-143.88476 -10e-5,-79.46564 58.0741,-143.88532 129.7124,-143.88527 z"
       sodipodi:nodetypes="ssssssssss" /><path
       id="path34"
       style="fill:#747474;stroke-width:160;stroke-linecap:round;stroke-linejoin:round;paint-order:stroke markers fill"
       d="m 3724,304.0002 80.0003,-5.9998 V 140 c 0.885,-28.6964 20.2972,-39.9996 49.9997,-39.9996 h 20 V 80.000001 H 3654 V 100.0004 h 20 c 28.9492,0 50,11.2659 50,39.9996 z"
       sodipodi:nodetypes="cccsccccssc" /><path
       id="path35"
       style="fill:#747474;stroke-width:160;stroke-linecap:round;stroke-linejoin:round;paint-order:stroke markers fill"
       d="m 4012.0002,299.99978 1,20.00033 h 16 c 28.5713,0 60.6528,11.26216 61.9998,40.00014 l 2.9999,63.99995 c 8.4936,181.20344 85.3913,279.99997 296.0002,279.99997 h 20.5455 c 50.5684,0 90.5744,-21.81101 111.4513,-62.1394 27.9239,-53.9413 5.3386,-109.3791 -23.4988,-126.65346 -22.1814,-13.28726 -43.641,-14.63486 -59.9881,-1.9134 -13.8982,10.81575 -18.5584,32.64295 1.2196,42.85603 36.1896,18.68788 73.7432,55.37702 51.9364,77.90662 -18.134,18.73505 -46.3034,27.94351 -81.1204,27.94351 h -22.5454 c -126.4274,0 -192.6526,-71.80718 -202.0008,-237.99982 l -2.9993,-63.99995 c -0.6561,-28.69634 22.0001,-40.00014 42.0001,-40.00014 h 16 l -1.0004,-20.00033 z"
       sodipodi:nodetypes="ccssssssssssssccsccc" /><path
       id="path37"
       style="fill:#747474;stroke-width:160;stroke-linecap:round;stroke-linejoin:round;paint-order:stroke markers fill"
       d="m 4552.5995,299.99978 -110.5997,5.1e-4 c -19.9998,9e-5 -53.6045,11.26606 -83.2001,39.99963 L 4049.8,640.00021 c -29.5956,28.73361 -63.1997,39.99963 -83.1996,39.99963 h -14.0002 l -0.6005,20.00033 110.6003,-5.2e-4 c 19.9997,-9e-5 53.6045,-11.26599 83.2001,-39.99963 l 308.9997,-300.00029 c 29.5956,-28.73361 63.1997,-39.99962 83.1996,-39.99962 h 14.0001 z"
       sodipodi:nodetypes="cssssccsssscc" /><path
       id="path41"
       style="fill:#747474;fill-opacity:1;stroke:none;stroke-width:160;stroke-linecap:round;stroke-linejoin:round;paint-order:stroke markers fill"
       d="m 5164.7919,289.99987 c -109.7897,0 -204.7918,94.02034 -204.7919,210.0001 -1e-4,100.00003 70.6547,210.00003 212.0619,210.0001 74.3457,4e-5 138.1645,-42.46944 175.363,-112.03864 l -26.2098,-7.01042 c -30.7172,29.04876 -76.3057,47.04898 -144.9977,47.04893 -76.2174,-5e-5 -128.2169,-69.07383 -128.2171,-157.88454 -2e-4,-79.46556 50.4912,-143.88523 118.3058,-143.88528 63.1552,-4e-5 109.0477,51.14666 112.1623,126.77004 H 5005.4245 L 5015.425,496 H 5344 c 6.6263,0 9.2998,-4.51292 9.2998,-10.02884 0,-124.99396 -69.2998,-195.97129 -188.5079,-195.97129 z"
       sodipodi:nodetypes="sssccssscccsss" /><path
       id="path42"
       style="fill:#747474;stroke-width:160;stroke-linecap:round;stroke-linejoin:round;paint-order:stroke markers fill"
       d="M 5767.9998,315.99983 5688,341.9998 v 358.00037 h 127.9999 v -20.00033 h -5.9996 c -20,0 -42.0005,-11.26598 -42.0005,-39.99963 z"
       sodipodi:nodetypes="cccccssc" /><path
       id="path43"
       style="fill:#747474;stroke-width:160;stroke-linecap:round;stroke-linejoin:round;paint-order:stroke markers fill"
       d="m 5688,299.99978 v 60.00047 h 79.9998 c 0.7788,-28.69637 24.0004,-40.00024 44.0004,-40.00014 H 5816 v -20.00033 z" /><path
       id="path44"
       style="fill:#747474;stroke-width:160;stroke-linecap:round;stroke-linejoin:round;paint-order:stroke markers fill"
       d="m 5589.9998,300 h -172 v 20 h 38 c 21.8502,0 23.1384,8.5485 8,26 -63.6097,73.32883 -91.9998,225.82576 -16,310.00001 74.113,82.08457 197.3575,55.07088 264,-56.00001 v -60 c -60,89.53259 -144.6521,112.15699 -202,49.90112 C 5437.514,511.21187 5525.3534,340 5585.9998,312 c 6.9242,-3.19687 12.4389,-12 4,-12 z"
       sodipodi:nodetypes="sccsssccsss" /><path
       id="path45"
       style="fill:#747474;fill-opacity:1;stroke:none;stroke-width:160;stroke-linecap:round;stroke-linejoin:round;paint-order:stroke markers fill"
       d="m 6132,442 c 0.2457,11.83808 85.4291,-12.4395 82,-40 -8.1089,-65.17336 -68.3203,-112.00018 -163.1657,-112.00013 -124.7907,6e-5 -212,80.80402 -212.0001,210.0001 -1e-4,140.00003 101.1658,210.00004 212.0001,210.0001 70.3074,4e-5 125.2027,-42.46944 160.3807,-112.03864 l -24.7866,-7.01042 c -29.0488,29.04876 -82.2138,45.04897 -135.8819,45.04893 -70.5465,-5e-5 -124.2317,-62.64236 -123.7125,-155.88454 0.4425,-79.46433 54.0743,-143.88523 125.7125,-143.88528 C 6117.7641,337.24814 6130.7548,382.0143 6132,442 Z"
       sodipodi:nodetypes="sssssccssss" /><path
       style="fill:#747474;fill-opacity:1;stroke:none;stroke-width:0.264583px;stroke-linecap:butt;stroke-linejoin:miter;stroke-opacity:1"
       d="m 6288,299.99978 20,38.00026 h 201.6377 c 70.3624,0 118.7441,31.76436 151.2867,77.13399 l 25.5767,-1.88733 -58.5022,-113.24692 z"
       id="path47"
       sodipodi:nodetypes="ccscccc" /><path
       style="fill:#747474;fill-opacity:1;stroke:none;stroke-width:0.264583px;stroke-linecap:butt;stroke-linejoin:miter;stroke-opacity:1"
       d="m 6368,482.88043 v 46.90682 c 98.9892,-68.5811 177.9149,-72.84949 211.4042,-10 33.4639,62.80206 -24.0485,142.21276 -123.2242,142.21276 h -88.1799 v 37.99998 h 110.5496 c 203.7842,0 236.5465,-145.26933 184.5877,-219.99999 -56.4087,-81.13068 -183.5288,-86.80898 -295.1374,2.88043 z"
       id="path48"
       sodipodi:nodetypes="ccssccssc" /><path
       id="path50"
       style="fill:#747474;fill-opacity:1;stroke:none;stroke-width:160;stroke-linecap:round;stroke-linejoin:round;paint-order:stroke markers fill"
       d="m 7055,289.9999 c -96.6498,6e-5 -175.0001,94.02022 -175,210.0001 -1e-4,115.97988 78.3502,210.00016 175,210.0001 96.6499,6e-5 175,-94.02022 175.0001,-210.0001 0,-123.24848 -68.8317,-210.00017 -175.0001,-210.0001 z m 3.3887,46.22998 c 52.1293,-5e-5 94.3885,64.41963 94.3885,143.88527 0,79.46544 -42.2593,143.88481 -94.3885,143.88476 -52.1295,5e-5 -94.3886,-64.41932 -94.3886,-143.88476 0,-79.46564 42.2591,-143.88532 94.3886,-143.88527 z"
       sodipodi:nodetypes="ssssssssss" /><path
       id="path51"
       style="fill:#747474;stroke-width:160;stroke-linecap:round;stroke-linejoin:round;paint-order:stroke markers fill"
       d="m 6760.0001,700 80,-100 V 310 h -80 z"
       sodipodi:nodetypes="ccccc" /><path
       id="path53"
       style="fill:#747474;fill-opacity:1;stroke:none;stroke-width:0.264583px;stroke-linecap:butt;stroke-linejoin:miter;stroke-opacity:1"
       d="m 6899.9993,520.48333 -139.999,173.16115 v 6.35569 c 0,11.91779 47.0247,12.67763 54.9997,0 l 100.9993,-120.55661 z"
       sodipodi:nodetypes="ccsscc" /><path
       id="path54"
       style="fill:#747474;stroke-width:160;stroke-linecap:round;stroke-linejoin:round;paint-order:stroke markers fill"
       d="m 6840,299.99978 v 60.00047 h -79.9998 c -0.7788,-28.69637 -24.0004,-40.00024 -44.0004,-40.00014 H 6712 v -20.00033 z" /><path
       id="path55"
       style="fill:#747474;fill-opacity:1;stroke:none;stroke-width:160;stroke-linecap:round;stroke-linejoin:round;paint-order:stroke markers fill"
       d="m 7412.0001,300 h -32 v 48 l 35.6026,0.0283 c 79.8835,-10e-5 141.0481,57.9622 141.0481,139.03408 0,100.60218 -61.1648,157.03269 -141.0481,157.0326 l -35.6026,-0.095 v 56.00001 l 32,1.6e-4 c 156.565,-2.07663 230,-80.46906 230,-204.00008 0,-134.31145 -73.2557,-196.00007 -230,-196.00007 z"
       sodipodi:nodetypes="ccccsccccsc" /><path
       id="path56"
       style="fill:#747474;stroke-width:160;stroke-linecap:round;stroke-linejoin:round;paint-order:stroke markers fill"
       d="m 7248.0002,299.99978 v 20.00033 H 7252 c 19.9999,0 43.2216,11.3038 44.0004,40.00014 v 279.99996 c 0,28.73362 -22.0006,39.99963 -42.0006,39.99963 h -5.9996 v 20.00033 h 131.9997 V 299.99978 Z"
       sodipodi:nodetypes="ccscssccccc" /><path
       id="path57"
       style="fill:#747474;fill-opacity:1;stroke:none;stroke-width:160;stroke-linecap:round;stroke-linejoin:round;paint-order:stroke markers fill"
       d="m 7857.8873,708.0001 c -124.6738,0 -172.3718,-75.13706 -155.8872,-170.0001 l 26,-6 c 0,80 44.0298,119.08888 129.346,114.09868 63.7891,-3.73106 98.166,-52.48948 98.166,-152.44088 0,-99.97025 -41.0401,-159.98675 -107.5768,-159.98675 -21.1733,0 -47.9352,8.32895 -57.6141,20.04397 -16.4318,19.8886 11.5067,28.20067 16.5612,55.29767 4.7801,25.62563 -10.5786,47.71909 -38.7289,53.46449 -25.9306,5.29235 -48.9125,-10.57274 -59.3295,-33.0557 -10.6591,-23.00552 -9.0065,-54.06943 2.8654,-75.62267 26.7274,-48.5233 88.3107,-65.79891 137.5475,-65.79891 128.9347,0 189.128,64.97978 189.128,215.99998 0,120.8465 -66.5527,204.00022 -180.4776,204.00022 z"
       sodipodi:nodetypes="sccsssssssssss" /><path
       id="rect58"
       style="fill:#747474;stroke-width:160;stroke-linecap:round;stroke-linejoin:round;paint-order:stroke markers fill"
       d="m 8240.0001,424.00008 v 135.99997 h 19.9998 v -6.00015 c 0,-19.99998 11.2665,-42.00002 40.0002,-42.00002 h 119.9998 v -39.99963 h -119.9998 c -28.6964,-0.7788 -40.0002,-24.00043 -40.0002,-44.00041 v -3.99976 z"
       sodipodi:nodetypes="cccsscccscc" /><circle
       style="fill:#747474;fill-opacity:1;stroke:none;stroke-width:160;stroke-linecap:round;stroke-linejoin:round;paint-order:stroke markers fill"
       id="path62"
       cx="9270"
       cy="650"
       r="49.999996" /><circle
       style="fill:#747474;fill-opacity:1;stroke:none;stroke-width:160;stroke-linecap:round;stroke-linejoin:round;paint-order:stroke markers fill"
       id="circle62"
       cx="9410"
       cy="650"
       r="49.999996" /><path
       style="fill:#747474;fill-opacity:1;stroke:none;stroke-width:0.264583px;stroke-linecap:butt;stroke-linejoin:miter;stroke-opacity:1"
       d="m 9459.9998,649.99999 c 3e-4,47.00002 -27.9997,92.00002 -48.2843,110.00002 h -27.5646 c 20.0185,-23.28867 39.849,-60 39.849,-110.00002 z"
       id="path63"
       sodipodi:nodetypes="ccccc" /><path
       id="path66"
       style="fill:#747474;stroke-width:160;stroke-linecap:round;stroke-linejoin:round;paint-order:stroke markers fill"
       d="m 12342,119.99977 v 20.00084 h 8 c 28.949,0 50,11.26596 50,39.99963 v 639.99981 c 0,28.71 -20.298,39.99963 -50,39.99963 h -8 v 20.00033 h 196 v -20.00033 h -8 c -28.949,0 -50,-11.26597 -50,-39.99963 V 180.00024 c 0,-28.71001 20.297,-39.99963 50,-39.99963 h 8 v -20.00084 z"
       sodipodi:nodetypes="ccssssccccssssccc" /><path
       id="path37-5"
       style="fill:#747474;stroke-width:160;stroke-linecap:round;stroke-linejoin:round;paint-order:stroke markers fill"
       d="m 13800.6,320 h 14 c 20,0 56.855,8.25846 83.2,39.99962 l 248.999,300.00029 c 26.345,31.74116 63.201,39.99954 83.2,39.99963 l 110.601,5.2e-4 -0.601,-20.00033 h -14 c -20,0 -56.855,-8.25963 -83.199,-39.99963 l -249,-300.00029 c -26.345,-31.74106 -63.201,-39.99954 -83.2,-39.99963 l -110.6,-5.1e-4 z"
       sodipodi:nodetypes="cssssccsssscc" /><path
       id="path67"
       style="fill:#747474;stroke-width:160;stroke-linecap:round;stroke-linejoin:round;paint-order:stroke markers fill"
       d="m 12882,119.99977 v 20.00084 h 8 c 28.949,0 50,11.26596 50,39.99963 v 639.99981 c 0,28.71 -20.298,39.99963 -50,39.99963 h -8 v 20.00033 h 196 v -20.00033 h -8 c -28.949,0 -50,-11.26597 -50,-39.99963 V 180.00024 c 0,-28.71001 20.297,-39.99963 50,-39.99963 h 8 v -20.00084 z"
       sodipodi:nodetypes="ccssssccccssssccc" /><path
       id="path68"
       style="fill:#747474;stroke-width:160;stroke-linecap:round;stroke-linejoin:round;paint-order:stroke markers fill"
       d="m 12682,199.99977 v 20.00084 h 8 c 28.949,0 50,11.26596 50,39.99963 V 640 c 0,28.71 -20.298,39.99963 -50,39.99963 h -8 v 20.00033 h 196 v -20.00033 h -8 c -28.949,0 -50,-11.26597 -50,-39.99963 V 200.00024 Z"
       sodipodi:nodetypes="ccssssccccsscc" /><path
       id="path69"
       style="fill:#747474;stroke-width:160;stroke-linecap:round;stroke-linejoin:round;paint-order:stroke markers fill"
       d="m 13502,119.99977 v 20.00084 h 8 c 28.949,0 50,11.26596 50,39.99963 v 639.99981 c 0,28.71 -20.298,39.99963 -50,39.99963 h -8 v 20.00033 h 196 v -20.00033 h -8 c -28.949,0 -50,-11.26597 -50,-39.99963 V 180.00024 c 0,-28.71001 20.297,-39.99963 50,-39.99963 h 8 v -20.00084 z"
       sodipodi:nodetypes="ccssssccccssssccc" /><path
       id="path70"
       style="fill:#747474;stroke-width:160;stroke-linecap:round;stroke-linejoin:round;paint-order:stroke markers fill"
       d="m 13342,199.99977 v 20.00084 h 8 c 28.949,0 50,11.26596 50,39.99963 V 640 c 0,28.71 -20.298,39.99963 -50,39.99963 h -8 v 20.00033 h 196 v -20.00033 h -8 c -28.949,0 -50,-11.26597 -50,-39.99963 V 200.00024 Z"
       sodipodi:nodetypes="ccssssccccsscc" /><path
       id="path71"
       style="fill:#747474;stroke-width:160;stroke-linecap:round;stroke-linejoin:round;paint-order:stroke markers fill"
       d="m 13182,199.99977 v 20.00084 h 8 c 28.949,0 50,11.26596 50,39.99963 V 640 c 0,28.71 -20.298,39.99963 -50,39.99963 h -8 v 20.00033 h 196 v -20.00033 h -8 c -28.949,0 -50,-11.26597 -50,-39.99963 V 200.00024 Z"
       sodipodi:nodetypes="ccssssccccsscc" /><path
       id="path72"
       style="fill:#747474;stroke-width:160;stroke-linecap:round;stroke-linejoin:round;paint-order:stroke markers fill"
       d="m 14112,120 v 20.00084 h 8 c 28.949,0 61.927,13.85822 50,39.99963 l -292,639.99958 c -11.917,26.11977 -40.298,39.99963 -70,39.99963 h -8 v 20.00033 h 228 v -20.00033 h -8 c -28.949,0 -61.927,-13.85824 -50,-39.99963 l 292,-639.99958 c 11.917,-26.12027 40.297,-39.99963 70,-39.99963 h 8 V 120 Z"
       sodipodi:nodetypes="ccssssccccssssccc" /><path
       id="path75"
       style="fill:#747474;stroke-width:160;stroke-linecap:round;stroke-linejoin:round;paint-order:stroke markers fill"
       d="m 15132,119.99977 v 20.00084 h 8 c 28.949,0 50,11.26596 50,39.99963 v 639.99981 c 0,28.71 -20.298,39.99963 -50,39.99963 h -8 v 20.00033 h 196 v -20.00033 h -8 c -28.949,0 -50,-11.26597 -50,-39.99963 V 180.00024 c 0,-28.71001 20.297,-39.99963 50,-39.99963 h 8 v -20.00084 z"
       sodipodi:nodetypes="ccssssccccssssccc" /><path
       id="path76"
       style="fill:#747474;stroke-width:160;stroke-linecap:round;stroke-linejoin:round;paint-order:stroke markers fill"
       d="m 14920,439.99989 h -440 c -28.71,0 -40,-10.298 -40,-40 v -8 h -20 v 128 h 440 c 28.71,0 39.999,10.297 39.999,40 v 8 H 14920 Z"
       sodipodi:nodetypes="csscccssccc" /><path
       id="path77"
       style="fill:#747474;stroke-width:160;stroke-linecap:round;stroke-linejoin:round;paint-order:stroke markers fill"
       d="m 15784,119.99977 v 20.00084 h 8 c 28.949,0 50,11.26596 50,39.99963 v 639.99981 c 0,28.71 -20.298,39.99963 -50,39.99963 h -8 v 20.00033 h 196 v -20.00033 h -8 c -28.949,0 -50,-11.26597 -50,-39.99963 V 180.00024 c 0,-28.71001 20.297,-39.99963 50,-39.99963 h 8 v -20.00084 z"
       sodipodi:nodetypes="ccssssccccssssccc" /><path
       id="path78"
       style="fill:#747474;stroke-width:160;stroke-linecap:round;stroke-linejoin:round;paint-order:stroke markers fill"
       d="m 15604,199.99977 v 20.00084 h 8 c 28.949,0 50,11.26596 50,39.99963 V 640 c 0,28.71 -20.298,39.99963 -50,39.99963 h -8 v 20.00033 h 196 v -20.00033 h -8 c -28.949,0 -50,-11.26597 -50,-39.99963 V 200.00024 Z"
       sodipodi:nodetypes="ccssssccccsscc" /><path
       id="path79"
       style="fill:#747474;stroke-width:160;stroke-linecap:round;stroke-linejoin:round;paint-order:stroke markers fill"
       d="m 16388,119.99977 v 20.00084 h 8 c 28.949,0 50,11.26596 50,39.99963 v 639.99981 c 0,28.71 -20.298,39.99963 -50,39.99963 h -8 v 20.00033 h 196 v -20.00033 h -8 c -28.949,0 -50,-11.26597 -50,-39.99963 V 180.00024 c 0,-28.71001 20.297,-39.99963 50,-39.99963 h 8 v -20.00084 z"
       sodipodi:nodetypes="ccssssccccssssccc" /><path
       id="path80"
       style="fill:#747474;stroke-width:160;stroke-linecap:round;stroke-linejoin:round;paint-order:stroke markers fill"
       d="m 16254,199.99977 v 20.00084 h 8 c 28.949,0 50,11.26596 50,39.99963 V 640 c 0,28.71 -20.298,39.99963 -50,39.99963 h -8 v 20.00033 h 196 v -20.00033 h -8 c -28.949,0 -50,-11.26597 -50,-39.99963 V 200.00024 Z"
       sodipodi:nodetypes="ccssssccccsscc" /><path
       id="path81"
       style="fill:#747474;stroke-width:160;stroke-linecap:round;stroke-linejoin:round;paint-order:stroke markers fill"
       d="m 16120,199.99977 v 20.00084 h 8 c 28.949,0 50,11.26596 50,39.99963 V 640 c 0,28.71 -20.298,39.99963 -50,39.99963 h -8 v 20.00033 h 196 v -20.00033 h -8 c -28.949,0 -50,-11.26597 -50,-39.99963 V 200.00024 Z"
       sodipodi:nodetypes="ccssssccccsscc" /><use
       x="0"
       y="0"
       xlink:href="#path76"
       id="use81"
       transform="translate(1120)" /><use
       x="0"
       y="0"
       xlink:href="#path76"
       id="use82"
       transform="translate(1680)" /><path
       style="fill:#747474;fill-opacity:1;stroke:none;stroke-width:0.264583px;stroke-linecap:butt;stroke-linejoin:miter;stroke-opacity:1"
       d="M 17139.999,120 H 16780 l -58.502,113.24692 25.576,1.88733 c 32.543,-45.36963 100.925,-77.13399 171.287,-77.13399 h 201.638 z"
       id="path47-1"
       sodipodi:nodetypes="ccccscc" /><path
       id="path37-5-6"
       style="fill:#747474;stroke-width:160;stroke-linecap:round;stroke-linejoin:round;paint-order:stroke markers fill"
       d="m 16700.6,320.00033 h 14 c 20,0 56.855,8.25849 83.2,39.99962 l 248.999,300.00029 c 26.345,31.74113 63.201,39.99954 83.2,39.99963 l 110.601,5.2e-4 -0.601,-20.00033 h -14 c -20,0 -56.855,-8.25977 -83.199,-39.99963 l -249,-300.00029 c -26.345,-31.74102 -63.201,-39.99954 -83.2,-39.99963 L 16700,300 Z"
       sodipodi:nodetypes="cssssccsssscc" /><path
       id="path72-5"
       style="fill:#747474;stroke-width:160;stroke-linecap:round;stroke-linejoin:round;paint-order:stroke markers fill"
       d="m 17012,120.00033 22,38.00084 h 8 c 28.949,0 34.986,6.6874 28,21.99963 l -292,639.99958 c -11.917,26.11977 -40.298,39.99963 -70,39.99963 h -8 v 20.00033 h 228 v -20.00033 h -8 c -28.949,0 -61.927,-13.85824 -50,-39.99963 l 292,-639.99958 c 11.917,-26.12027 40.297,-39.99963 70,-39.99963 h 8 v -20.00084 z"
       sodipodi:nodetypes="ccssssccccssssccc" /><path
       id="path83"
       style="fill:#747474;stroke-width:160;stroke-linecap:round;stroke-linejoin:round;paint-order:stroke markers fill"
       d="m 12192.799,659.99991 c 42.616,0 68.283,7.7224 109.2,39.99963 l 24.601,5.2e-4 -296.8,-360.00025 c -26.24,-31.82776 -63.201,-39.99953 -83.2,-39.99963 l -106.6,-5.1e-4 0.6,20.00033 h 14 c 20,0 56.855,8.25847 83.2,39.99962 l 248.999,300.00029 z"
       sodipodi:nodetypes="cccssccsscc" /><path
       id="path84"
       style="fill:#747474;stroke-width:160;stroke-linecap:round;stroke-linejoin:round;paint-order:stroke markers fill"
       d="m 11832.799,599.99991 c 42.616,0 68.283,7.7224 109.2,39.99963 l 24.601,5.2e-4 -156.8,-200.00025 c -25.45,-32.46259 -63.201,-39.99953 -83.2,-39.99963 l -106.6,-5.1e-4 0.6,20.00033 h 14 c 20,0 56.855,8.25847 83.2,39.99962 l 108.999,140.00029 z"
       sodipodi:nodetypes="cccssccsscc" /><path
       id="path85"
       style="fill:#747474;stroke-width:160;stroke-linecap:round;stroke-linejoin:round;paint-order:stroke markers fill"
       d="m 9594.0001,199.99977 v 20.00084 h 8 c 28.949,0 50,11.26596 50,39.99963 v 199.99981 c 0,28.71 -20.298,39.99963 -50,39.99963 h -8 v 20.00033 H 9790 v -20.00033 h -8 c -28.949,0 -50,-11.26597 -50,-39.99963 V 260.00024 c 0,-28.71001 20.297,-39.99963 50,-39.99963 h 8 v -20.00084 z"
       sodipodi:nodetypes="ccssssccccssssccc" /><path
       style="fill:#747474;fill-opacity:1;stroke:none;stroke-width:0.264583px;stroke-linecap:butt;stroke-linejoin:miter;stroke-opacity:1"
       d="M 10449.999,120 H 10154 l -58.502,113.24692 25.576,1.88733 c 32.543,-45.36963 100.925,-77.13399 171.287,-77.13399 h 137.638 z"
       id="path87"
       sodipodi:nodetypes="ccccscc" /><path
       id="path88"
       style="fill:#747474;stroke-width:160;stroke-linecap:round;stroke-linejoin:round;paint-order:stroke markers fill"
       d="m 10322,120.00033 22,38.00084 h 8 c 28.949,0 38.413,8.77678 28,21.99963 l -252,319.99958 c -75.52,95.89884 -63.786,199.41498 92,199.99963 l 52,-48 c -92.217,0 -137.731,-41.67243 -66,-131.99963 l 270,-339.99958 c 17.854,-22.48317 37.325,-39.99963 60,-39.99963 h 8 v -20.00084 z"
       sodipodi:nodetypes="ccsssccsssccc" /><path
       id="path89"
       style="fill:#747474;stroke-width:160;stroke-linecap:round;stroke-linejoin:round;paint-order:stroke markers fill"
       d="m 9814,119.99977 v 20.00084 h 8 c 28.949,0 50,11.26596 50,39.99963 v 459.99981 c 0,28.71 -20.298,39.99963 -50,39.99963 h -8 v 20.00033 h 188 v -20.00033 h -4 c -28.949,0 -46,-11.26597 -46,-39.99963 V 180.00024 c 0,-28.71001 20.297,-39.99963 50,-39.99963 h 8 v -20.00084 z"
       sodipodi:nodetypes="ccssssccccssssccc" /><path
       style="fill:#747474;fill-opacity:1;stroke:none;stroke-width:0.264583px;stroke-linecap:butt;stroke-linejoin:miter;stroke-opacity:1"
       d="m 9911.251,700.00001 -20,-38.00026 h -41.638 c -70.362,0 -138.744,-24.73637 -171.2869,-77.13399 l -25.576,1.88733 38.5019,113.24692 z"
       id="path90"
       sodipodi:nodetypes="ccscccc" /><path
       style="fill:#747474;fill-opacity:1;stroke:none;stroke-width:0.264583px;stroke-linecap:butt;stroke-linejoin:miter;stroke-opacity:1"
       d="m 10220,700.00001 h 270.749 l 58.502,-123.247 -25.576,-1.888 c -32.543,45.37 -100.925,77.134 -171.287,77.134 h -201.638 z"
       id="path94"
       sodipodi:nodetypes="ccccscc" /><rect
       style="fill:#747474;fill-opacity:1;stroke:none;stroke-width:160;stroke-linecap:round;stroke-linejoin:round;paint-order:stroke markers fill"
       id="rect94"
       width="220.00009"
       height="50.000004"
       x="10920"
       y="470" /><circle
       style="fill:#747474;fill-opacity:1;stroke:none;stroke-width:160;stroke-linecap:round;stroke-linejoin:round;paint-order:stroke markers fill"
       id="circle129"
       cx="10680"
       cy="190"
       r="49.999996" /><path
       style="fill:#747474;fill-opacity:1;stroke:none;stroke-width:0.264583px;stroke-linecap:butt;stroke-linejoin:miter;stroke-opacity:1"
       d="m 10730,189.99999 c 0,47.00002 -28,92.00002 -48.284,110.00002 h -27.565 c 20.018,-23.28867 39.849,-60 39.849,-110.00002 z"
       id="path129"
       sodipodi:nodetypes="ccccc" /><circle
       style="fill:#747474;fill-opacity:1;stroke:none;stroke-width:160;stroke-linecap:round;stroke-linejoin:round;paint-order:stroke markers fill"
       id="circle130"
       cx="10800"
       cy="190"
       r="49.999996" /><path
       style="fill:#747474;fill-opacity:1;stroke:none;stroke-width:0.264583px;stroke-linecap:butt;stroke-linejoin:miter;stroke-opacity:1"
       d="m 10850,189.99999 c 0,47.00002 -28,92.00002 -48.284,110.00002 h -27.565 c 20.018,-23.28867 39.849,-60 39.849,-110.00002 z"
       id="path130"
       sodipodi:nodetypes="ccccc" /><path
       id="path131"
       style="fill:#747474;fill-opacity:1;stroke:none;stroke-width:0.264583px;stroke-linecap:butt;stroke-linejoin:miter;stroke-opacity:1"
       d="m 7815.2891,-1408.3423 c -106.8598,0 -174.6206,50.0001 -182.2385,141.9999 -0.6623,7.9987 -5.7216,14.2968 -13.5165,17.1607 l -15.1469,5.5651 6.1283,17.9565 99.2162,-30.0035 c 6.7907,-2.0535 13.2683,-7.9231 13.2683,-20.7611 0,-50.4572 45.6114,-88.0164 96.8878,-88.0164 72.0403,0 100.1123,64.7506 100.1123,164.4411 0,90.0362 -44.5284,155.9869 -111.065,155.9869 -59.1549,0 -91.2614,-27.1985 -106.2204,-57.3878 -10.4198,-21.0285 11.5414,-30.0727 15.9132,-55.1253 4.1345,-23.6921 -9.1497,-44.1192 -33.4977,-49.4311 -22.428,-4.893 -43.2312,9.3452 -51.3162,30.562 -9.2194,24.193 -3.0176,62.0682 6.2208,85.9167 29.3489,75.762 99.5703,101.13651 168.2021,101.13647 119.2066,-7e-5 196.7633,-71.59457 196.7632,-215.99977 -1e-4,-142.4121 -75.7862,-204.0004 -189.711,-204.0004 z"
       sodipodi:nodetypes="sssccsssssssssssss" /><path
       id="path132"
       style="fill:#747474;fill-opacity:1;stroke:none;stroke-width:160;stroke-linecap:round;stroke-linejoin:round;paint-order:stroke markers fill"
       d="m 7874.2893,-915.51095 c -106.8599,0 -182.2387,73.93143 -182.2387,161.9999 l 91.9495,-32.08229 c 1.9382,-50.42006 43.6115,-86.01619 94.8879,-86.01619 72.0404,0 106.1121,64.75031 106.1121,164.44088 0,90.03626 -44.5281,155.98675 -111.0648,155.98675 -59.1549,0 -91.2614,-27.19829 -106.2204,-57.38762 -10.4198,-21.02856 11.5412,-30.07296 15.913,-55.12552 4.1345,-23.6922 -9.1497,-44.11873 -33.4977,-49.43064 -22.4281,-4.89305 -43.2308,9.34488 -51.3158,30.56168 -9.2194,24.19303 -3.018,62.06849 6.2204,85.91701 29.3489,75.76202 99.5702,101.13628 168.2021,101.13624 119.2067,-7e-5 196.7633,-71.59465 196.7632,-215.99998 -1e-4,-142.41224 -81.7859,-204.00022 -195.7108,-204.00022 z"
       sodipodi:nodetypes="sccsssssssssss" /><path
       id="path133"
       style="fill:#747474;fill-opacity:1;stroke:none;stroke-width:160;stroke-linecap:round;stroke-linejoin:round;paint-order:stroke markers fill"
       d="m 8304.2893,-915.51095 c -106.8599,0 -182.2387,73.93143 -182.2387,161.9999 l 91.9495,-32.08229 c 1.9382,-50.42006 43.6115,-86.01619 94.8879,-86.01619 72.0404,0 106.1121,64.75031 106.1121,164.44088 0,90.03626 -44.5281,155.98675 -111.0648,155.98675 -59.1549,0 -91.2614,-27.19829 -106.2204,-57.38762 -10.4198,-21.02856 11.5412,-30.07296 15.913,-55.12552 4.1345,-23.6922 -9.1497,-44.11873 -33.4977,-49.43064 -22.4281,-4.89305 -43.2308,9.34488 -51.3158,30.56168 -9.2194,24.19303 -3.018,62.06849 6.2204,85.91701 29.3489,75.76202 99.5702,101.13628 168.2021,101.13624 119.2067,-7e-5 196.7633,-71.59465 196.7632,-215.99998 -10e-5,-142.41224 -81.7859,-204.00022 -195.7108,-204.00022 z"
       sodipodi:nodetypes="sccsssssssssss" /><path
       id="path134"
       style="fill:#747474;stroke-width:160;stroke-linecap:round;stroke-linejoin:round;paint-order:stroke markers fill"
       d="m 8270.0001,-781.51077 v 135.99997 h 19.9998 v -6.00015 c 0,-19.99998 11.2665,-42.00002 40.0002,-42.00002 h 119.9998 v -39.99963 h -119.9998 c -28.6964,-0.7788 -40.0002,-24.00043 -40.0002,-44.00041 v -3.99976 z"
       sodipodi:nodetypes="cccsscccscc" /><path
       style="fill:#747474;fill-opacity:1;stroke:none;stroke-width:160;stroke-linecap:round;stroke-linejoin:round;paint-order:stroke markers fill"
       d="m 8830.0001,-735.51085 c 101.0089,-74.72941 36.1851,-180.0001 -97.7108,-180.0001 -129.0767,0 -174.2387,73.93143 -174.2387,161.9999 l 87.9495,-32.08229 c -12.6781,-58.60519 36.2888,-86.01619 82.8879,-86.01619 85.2656,0 106.3171,106.59851 21.1121,176.09868"
       id="path135"
       sodipodi:nodetypes="csccsc" /><path
       style="fill:#747474;fill-opacity:1;stroke:none;stroke-width:160;stroke-linecap:round;stroke-linejoin:round;paint-order:stroke markers fill"
       d="m 8750.0001,-695.51085 c 99.3753,35.98694 68.6146,156.32895 -32.0648,156.32895 -59.1549,0 -102.182,-16.55063 -100.6322,-44.06636 1.1677,-20.73077 23.5527,-27.73071 34.1286,-47.59033 10.0014,-18.78125 4.4582,-39.61422 -14.5501,-50.78629 -17.5096,-10.29114 -38.9214,-4.0496 -51.5627,11.5623 -14.4148,17.80185 -22.245,43.81181 -20.4332,77.95066 3.5424,66.74773 49.3266,96.60117 152.3512,96.60117 153.9947,0 222.7632,-170.0001 112.7632,-240.0001 z"
       id="path136"
       sodipodi:nodetypes="cssssssscc" /><path
       id="path138"
       style="fill:#747474;fill-opacity:1;stroke:none;stroke-width:160;stroke-linecap:round;stroke-linejoin:round;paint-order:stroke markers fill"
       d="m 7857.8873,28.698016 c -128.8079,0 -175.9454,-80.68136 -168.8839,-188.462716 l 22.569,-9.45489 c 6.835,80.320816 44.7158,143.717286 145.7737,140.016186 63.8553,-2.33861 98.166,-56.48948 98.166,-156.440876 0,-99.97025 -41.0401,-163.98675 -107.5768,-163.98675 -19.1062,0 -33.3004,5.68646 -43.6141,16.04397 -18.2036,18.28086 13.5067,32.20067 18.5612,59.29767 4.7801,25.62563 -10.5786,47.71909 -38.7289,53.46449 -25.9306,5.29235 -48.9125,-10.57274 -59.3295,-33.0557 -10.6591,-23.00552 -9.0066,-54.06951 2.8654,-75.62267 28.0821,-50.98274 82.585,-61.79891 129.5475,-61.79891 128.9347,0 181.128,64.97978 181.128,215.99998 0,120.846496 -66.5527,204.000216 -180.4776,204.000216 z"
       sodipodi:nodetypes="sccsssssssssss" /><path
       id="path139"
       style="fill:#747474;fill-opacity:1;stroke:none;stroke-width:160;stroke-linecap:round;stroke-linejoin:round;paint-order:stroke markers fill"
       d="m 7857.8873,-2059.9998 c -124.6738,0 -170.5185,-70.0001 -156.8839,-148.4627 l 58.569,-27.4549 c -30.9567,80.0683 6.6697,121.3527 97.7737,118.0162 63.8553,-2.3386 98.166,-56.4895 98.166,-156.4409 0,-99.9703 -55.0401,-163.9868 -121.5768,-163.9868 -19.1062,0 -41.3004,5.6865 -51.6141,16.044 -18.2036,18.2809 13.5067,32.2007 18.5612,59.2977 4.7801,25.6256 -10.5786,47.7191 -38.7289,53.4645 -25.9306,5.2923 -48.9125,-10.5728 -59.3295,-33.0557 -10.6591,-23.0056 -9.0066,-54.0695 2.8654,-75.6227 28.0821,-50.9827 82.585,-61.7989 129.5475,-61.7989 128.9347,0 203.128,64.9798 203.128,216 0,120.8465 -66.5527,204.0002 -180.4776,204.0002 z"
       sodipodi:nodetypes="sccsssssssssss" /><path
       id="path140"
       style="fill:#747474;fill-opacity:1;stroke:none;stroke-width:160;stroke-linecap:round;stroke-linejoin:round;paint-order:stroke markers fill"
       d="m 8257.8873,708.0001 c -124.6738,0 -172.3718,-75.13706 -155.8872,-170.0001 l 26,-6 c 0,80 44.0298,119.08888 129.346,114.09868 63.7891,-3.73106 98.166,-52.48948 98.166,-152.44088 0,-99.97025 -41.0401,-163.98675 -107.5768,-163.98675 -21.1733,0 -47.9352,8.32895 -57.6141,20.04397 -16.4318,19.8886 11.5067,28.20067 16.5612,55.29767 4.7801,25.62563 -10.5786,47.71909 -38.7289,53.46449 -25.9306,5.29235 -48.9125,-10.57274 -59.3295,-33.0557 -10.6591,-23.00552 -9.0065,-54.06943 2.8654,-75.62267 26.7274,-48.5233 88.3107,-61.79891 137.5475,-61.79891 128.9347,0 189.128,64.97978 189.128,215.99998 0,120.8465 -66.5527,204.00022 -180.4776,204.00022 z"
       sodipodi:nodetypes="sccsssssssssss" /><path
       id="path145"
       style="fill:#747474;fill-opacity:1;stroke:none;stroke-width:160;stroke-linecap:round;stroke-linejoin:round;paint-order:stroke markers fill"
       d="m 9385.6519,-869.38463 c -11.1556,20.25292 -12.7085,49.44288 -2.6925,71.06044 9.7885,21.12655 31.3841,36.03417 55.7502,31.06111 26.4521,-5.39877 40.8842,-26.15931 36.3924,-50.2389 -4.7495,-25.46222 -33.0026,-31.27275 -17.5621,-49.9613 13.6803,-16.5581 37.1299,-26.52118 64.2977,-26.52118 85.2653,0 125.1099,93.55027 4.065,180.32917 119.4255,32 77.5656,146.39333 -6.678,144.70872 -61.3099,-1.22601 -99.3221,-72.70872 -203.3221,-36.76963 l -1.788,22.06095 c 101.1558,-27.10463 97.187,69.78683 191.0248,69.98775 v 0.0124 c 0.1149,0 0.2269,-0.005 0.3416,-0.006 0.1049,1.1e-4 0.204,0.006 0.3091,0.006 v -0.0114 c 163.4552,0.34502 242.7361,-164.78042 108.1126,-229.98855 94.5774,-74.72917 41.1321,-190.0003 -92.7633,-190.00027 -49.2367,10e-6 -110.3725,18.67487 -135.4874,64.27069 z"
       sodipodi:nodetypes="sssssscsccccscccss" /><path
       id="path146"
       style="fill:#747474;fill-opacity:1;stroke:none;stroke-width:160;stroke-linecap:round;stroke-linejoin:round;paint-order:stroke markers fill"
       d="m 8539.6818,-349.10928 c -11.1556,20.25292 -12.7085,49.44288 -2.6925,71.06044 9.7885,21.12655 31.3841,36.03417 55.7502,31.06111 26.4521,-5.39877 40.8842,-26.15931 36.3924,-50.2389 -4.7495,-25.46222 -31.0024,-33.27261 -15.5621,-51.9613 9.095,-11.00824 39.1244,-22.52118 60.2977,-22.52118 85.2653,0 117.2408,100.05944 8.0653,178.32917 119.4255,32 89.9996,138.191493 -8.678,140.708723 -93.2924,2.37986 -135.3225,-34.70892 -135.3225,-114.708763 l -24.0001,4.00028 c -16.4553,94.694593 31.0572,169.7216734 155.237,169.9875534 v 0.0124 c 0.1149,0 0.2269,-0.005 0.3416,-0.006 0.1049,1.1e-4 0.204,0.006 0.3091,0.006 v -0.0114 c 153.5333,-0.4818 222.1124,-167.9887934 94.1126,-229.9885534 94.5774,-74.72917 45.1321,-190.0003 -88.7633,-190.00027 -49.2367,1e-5 -110.3725,18.67487 -135.4874,64.27069 z"
       sodipodi:nodetypes="sssssscsccccscccss" /><path
       style="fill:#747474;fill-opacity:1;stroke:none;stroke-width:160;stroke-linecap:round;stroke-linejoin:round;paint-order:stroke markers fill"
       d="m 9087.2369,-943.83573 c -49.2367,10e-6 -110.3725,18.67487 -135.4874,64.27069 -11.1556,20.25292 -12.7085,49.44288 -2.6925,71.06044 9.7885,21.12655 31.3841,36.03417 55.7502,31.06111 26.4521,-5.39877 40.8842,-26.15931 36.3924,-50.2389 -4.7495,-25.46222 -33.0026,-31.27275 -17.5621,-49.9613 13.6803,-16.5581 37.1299,-26.52118 64.2977,-26.52118 122.7563,0 112.0649,126.71752 -87.9351,206.78774 l 12.7416,11.54143 c 296.5766,-56 259.9995,-258.00007 74.4952,-258.00003 z"
       id="path148"
       sodipodi:nodetypes="sssssssccs" /><path
       style="fill:#8b3939;fill-opacity:1;stroke:none;stroke-width:160;stroke-linecap:round;stroke-linejoin:round;paint-order:stroke markers fill"
       d="m 9092.0002,-185.00022 c 119.4255,32 77.5656,146.393334 -6.678,144.708724 -61.3099,-1.22601 -99.3221,-72.708724 -203.3221,-36.76963 l -1.788,22.06095 c 101.1558,-27.10463 97.187,69.78683 191.0248,69.98775 v 0.0124 c 0.1149,0 0.2269,-0.005 0.3416,-0.006 0.1049,1.1e-4 0.204,0.006 0.3091,0.006 v -0.0114 c 163.4552,0.34502 242.7361,-164.780424 108.1126,-229.988554"
       id="path147" /><path
       style="fill:#747474;fill-opacity:1;stroke:none;stroke-width:160;stroke-linecap:round;stroke-linejoin:round;paint-order:stroke markers fill"
       d="m 9084.0005,-723.8357 c 119.4255,32 89.9996,162.19149 -8.678,164.70872 -32.9609,0.84082 -77.523,-7.74161 -98.0933,-20.13504 l -15.2343,14.56638 c 24.0052,24.32749 59.4335,40.74109 109.242,40.84773 v 0.0124 c 0.1149,0 0.2269,-0.005 0.3416,-0.006 0.1049,1.1e-4 0.204,0.006 0.3091,0.006 v -0.0114 c 153.5333,-0.4818 222.1124,-167.98879 94.1126,-229.98855 z"
       id="path149"
       sodipodi:nodetypes="csccccscccc" /><path
       style="fill:#747474;fill-opacity:1;stroke:none;stroke-width:160;stroke-linecap:round;stroke-linejoin:round;paint-order:stroke markers fill"
       d="m 9098.0005,-450.00024 c 119.4255,32 89.9996,138.19149 -8.678,140.70872 C 8996.0301,-306.91166 8954,-344.00044 8954,-424.00028 L 8929.9999,-420 c -16.4553,94.69459 31.0572,169.72167 155.237,169.98755 v 0.0124 c 0.1149,0 0.2269,-0.005 0.3416,-0.006 0.1049,1.1e-4 0.204,0.006 0.3091,0.006 v -0.0114 C 9239.4209,-250.49325 9308,-418.00024 9180.0002,-480 Z"
       id="path150"
       sodipodi:nodetypes="csccccscccc" /><path
       id="path152"
       style="fill:#747474;fill-opacity:1;stroke:none;stroke-width:160;stroke-linecap:round;stroke-linejoin:round;paint-order:stroke markers fill"
       d="m 8508.3496,352.27049 c -11.1556,20.2529 -12.7083,49.44324 -2.6924,71.06078 9.7885,21.12653 31.3841,36.0342 55.7501,31.06115 26.4521,-5.39877 40.8844,-26.15975 36.3926,-50.23931 -4.7495,-25.4622 -33.0027,-31.27276 -17.5622,-49.96129 13.6803,-16.55809 38.8516,-26.52086 66.693,-26.52086 75.9011,0 124.8301,92.32904 -14.9304,178.32916 l 11.8625,9.99991 c 28.1043,-8.68339 46.4244,-8.34616 66.837,8.34159 47.2962,38.66572 9.0696,124.24609 -59.3773,126.9871 C 8560.9241,654.94879 8520,614.61972 8520,534.61996 l -26,6.00027 c -16.4553,94.6945 33.0573,169.72168 157.237,169.98756 v 0.0124 c 0.1149,0 0.2269,-0.005 0.3416,-0.006 0.1049,1.1e-4 0.2039,0.006 0.309,0.006 v -0.0114 c 157.339,-0.49374 218.3534,-183.61443 82.6341,-233.74582 99.5401,-64.38239 74.7529,-188.86305 -88.307,-188.863 -50.4574,2e-5 -112.7502,18.67474 -137.8651,64.27052 z"
       sodipodi:nodetypes="ssssssccssccccscccss" /><path
       id="path153"
       style="fill:#747474;fill-opacity:1;stroke:none;stroke-width:160;stroke-linecap:round;stroke-linejoin:round;paint-order:stroke markers fill"
       d="m 9342.5308,-387.83062 c -11.1556,20.2529 -12.7083,49.44324 -2.6924,71.06078 9.7885,21.12653 31.3841,36.0342 55.7501,31.06115 26.4521,-5.39877 40.8844,-26.15975 36.3926,-50.23931 -4.7495,-25.4622 -33.0027,-31.27276 -17.5622,-49.96129 13.6803,-16.55809 39.1301,-26.52086 66.2979,-26.52086 74.0647,0 113.0025,91.84268 -15.9351,178.32916 l 11.5755,9.99991 c 27.4243,-8.68339 45.2364,-9.55203 67.124,8.34159 49.3003,40.30407 11.9415,125.167795 -59.3773,126.987105 -93.2923,2.37985 -131.3225,-36.709005 -131.3225,-116.708765 l -26,6.00027 c -16.4553,94.6945 33.0573,169.721685 157.237,169.987565 v 0.0124 c 0.1149,0 0.2269,-0.005 0.3416,-0.006 0.1049,1.1e-4 0.2039,0.006 0.309,0.006 v -0.0114 c 152.66,-0.47906 223.508,-175.731785 80.1536,-235.745825 88.8636,-66.03604 77.1341,-186.86305 -84.8045,-186.863 -49.2366,2e-5 -112.3724,18.67474 -137.4873,64.27052 z"
       sodipodi:nodetypes="ssssssccssccccscccss" /><use
       x="0"
       y="0"
       xlink:href="#path76"
       id="use155"
       transform="translate(560)" /><path
       id="path157"
       style="fill:#747474;fill-opacity:1;stroke:none;stroke-width:160;stroke-linecap:round;stroke-linejoin:round;paint-order:stroke markers fill"
       d="M 4859.166,400 4620,538.90092 4640,570.93447 4934,403 c 3.0104,-1.71956 3.0953,-5.67178 1.753,-9.23099 -12.6848,-33.63354 -60.9682,-103.76917 -166.3569,-103.76914 -110.3939,3e-5 -209.396,94.02034 -209.3961,210.0001 -1e-4,100.00003 70.6547,210.00003 212.0619,210.0001 74.3457,4e-5 138.1645,-42.46944 175.363,-112.03864 l -26.2098,-7.01042 c -30.7172,29.04876 -76.3057,47.04898 -144.9977,47.04893 -76.2174,-5e-5 -128.2169,-69.07383 -128.2171,-157.88454 -2e-4,-79.46556 54.4912,-143.88523 123.009,-143.88528 50.4405,-3e-5 80.6263,35.66592 88.1567,63.76988 z"
       sodipodi:nodetypes="cccsssssccsssc" /></g></svg>
